<svg viewBox="0 0 157 156" fill="none" xmlns="http://www.w3.org/2000/svg" xmlns:xlink="http://www.w3.org/1999/xlink" aria-hidden="true" class="group-hover:w-3 group-hover:h-3 transition-all duration-150 w-3 h-3" width="16" height="16"><path fill-rule="evenodd" clip-rule="evenodd" d="M82.2214 104.04L105.483 143.586C108.242 148.276 114.274 149.852 118.974 147.112V147.112C123.675 144.371 125.275 138.345 122.552 133.634L99.5971 93.9091L144.009 105.424C149.276 106.79 154.656 103.639 156.042 98.3773V98.3773C157.428 93.1154 154.298 87.7233 149.042 86.317L104.72 74.4593L144.266 51.1978C148.957 48.439 150.533 42.407 147.792 37.7062V37.7062C145.052 33.0054 139.026 31.4057 134.314 34.1282L94.5898 57.0835L106.105 12.6719C107.471 7.40463 104.32 2.02469 99.058 0.638673V0.638673C93.7961 -0.747342 88.4041 2.38242 86.9977 7.63895L75.14 51.9603L51.8786 12.4142C49.1197 7.72403 43.0878 6.14763 38.387 8.8883V8.8883C33.6862 11.629 32.0865 17.6548 34.809 22.3662L57.7643 62.0908L13.3526 50.5758C8.08539 49.2101 2.70545 52.3607 1.31944 57.6226V57.6226C-0.0665745 62.8845 3.06319 68.2766 8.31971 69.6829L52.6411 81.5406L13.095 104.802C8.4048 107.561 6.8284 113.593 9.56907 118.294V118.294C12.3097 122.994 18.3356 124.594 23.0469 121.872L62.7716 98.9164L51.2566 143.328C49.8909 148.595 53.0414 153.975 58.3034 155.361V155.361C63.5653 156.747 68.9573 153.617 70.3637 148.361L82.2214 104.04Z" fill="white"/><path fill-rule="evenodd" clip-rule="evenodd" d="M82.2214 104.04L105.483 143.586C108.242 148.276 114.274 149.852 118.974 147.112V147.112C123.675 144.371 125.275 138.345 122.552 133.634L99.5971 93.9091L144.009 105.424C149.276 106.79 154.656 103.639 156.042 98.3773V98.3773C157.428 93.1154 154.298 87.7233 149.042 86.317L104.72 74.4593L144.266 51.1978C148.957 48.439 150.533 42.407 147.792 37.7062V37.7062C145.052 33.0054 139.026 31.4057 134.314 34.1282L94.5898 57.0835L106.105 12.6719C107.471 7.40463 104.32 2.02469 99.058 0.638673V0.638673C93.7961 -0.747342 88.4041 2.38242 86.9977 7.63895L75.14 51.9603L51.8786 12.4142C49.1197 7.72403 43.0878 6.14763 38.387 8.8883V8.8883C33.6862 11.629 32.0865 17.6548 34.809 22.3662L57.7643 62.0908L13.3526 50.5758C8.08539 49.2101 2.70545 52.3607 1.31944 57.6226V57.6226C-0.0665745 62.8845 3.06319 68.2766 8.31971 69.6829L52.6411 81.5406L13.095 104.802C8.4048 107.561 6.8284 113.593 9.56907 118.294V118.294C12.3097 122.994 18.3356 124.594 23.0469 121.872L62.7716 98.9164L51.2566 143.328C49.8909 148.595 53.0414 153.975 58.3034 155.361V155.361C63.5653 156.747 68.9573 153.617 70.3637 148.361L82.2214 104.04Z" fill="url(#paint0_radial_1413_80169)"/><path fill-opacity=".6" fill-rule="evenodd" clip-rule="evenodd" d="M82.2214 104.04L105.483 143.586C108.242 148.276 114.274 149.852 118.974 147.112V147.112C123.675 144.371 125.275 138.345 122.552 133.634L99.5971 93.9091L144.009 105.424C149.276 106.79 154.656 103.639 156.042 98.3773V98.3773C157.428 93.1154 154.298 87.7233 149.042 86.317L104.72 74.4593L144.266 51.1978C148.957 48.439 150.533 42.407 147.792 37.7062V37.7062C145.052 33.0054 139.026 31.4057 134.314 34.1282L94.5898 57.0835L106.105 12.6719C107.471 7.40463 104.32 2.02469 99.058 0.638673V0.638673C93.7961 -0.747342 88.4041 2.38242 86.9977 7.63895L75.14 51.9603L51.8786 12.4142C49.1197 7.72403 43.0878 6.14763 38.387 8.8883V8.8883C33.6862 11.629 32.0865 17.6548 34.809 22.3662L57.7643 62.0908L13.3526 50.5758C8.08539 49.2101 2.70545 52.3607 1.31944 57.6226V57.6226C-0.0665745 62.8845 3.06319 68.2766 8.31971 69.6829L52.6411 81.5406L13.095 104.802C8.4048 107.561 6.8284 113.593 9.56907 118.294V118.294C12.3097 122.994 18.3356 124.594 23.0469 121.872L62.7716 98.9164L51.2566 143.328C49.8909 148.595 53.0414 153.975 58.3034 155.361V155.361C63.5653 156.747 68.9573 153.617 70.3637 148.361L82.2214 104.04Z" fill="url(#pattern-home-hero-star-0)" style="mix-blend-mode: multiply;"/><defs><pattern id="pattern-home-hero-star-0" patternContentUnits="objectBoundingBox" width="0.625" height="0.625"><use xlink:href="#svg-noise" xmlns:xlink="http://www.w3.org/1999/xlink" transform="scale(0.00125)"/></pattern><linearGradient id="paint0_radial_1413_80169" x1="0" y1="0" x2="157" y2="156" gradientUnits="userSpaceOnUse"><stop offset=".177" stop-color="#DFFFD1"/><stop offset=".828" stop-color="#3DED6F"/></linearGradient></defs></svg>