<svg xmlns="http://www.w3.org/2000/svg" xmlns:xlink="http://www.w3.org/1999/xlink" fill="none" viewBox="0 0 125 124" aria-hidden="true" class="text-muted-foreground" width="13" height="13"><path fill="url(#svg-plugin-draw-a)" fill-rule="evenodd" d="M47.356 12.105c3.646-16.14 26.642-16.14 30.288 0 .95 4.209 5.78 6.209 9.429 3.905 13.99-8.834 30.251 7.427 21.417 21.417-2.304 3.648-.304 8.478 3.905 9.429 16.14 3.646 16.14 26.642 0 30.288-4.209.95-6.209 5.78-3.905 9.429 8.834 13.99-7.427 30.251-21.417 21.417-3.648-2.304-8.478-.304-9.429 3.905-3.646 16.14-26.642 16.14-30.288 0-.95-4.209-5.78-6.209-9.429-3.905-13.99 8.834-30.251-7.427-21.417-21.417 2.304-3.648.303-8.478-3.905-9.429-16.14-3.646-16.14-26.642 0-30.288 4.209-.95 6.209-5.78 3.905-9.429-8.834-13.99 7.427-30.251 21.417-21.417 3.648 2.304 8.478.303 9.429-3.905Zm21.237 2.044c-1.467-6.494-10.72-6.494-12.186 0-2.363 10.46-14.367 15.433-23.434 9.707-5.629-3.555-12.172 2.988-8.617 8.617 5.726 9.067.753 21.071-9.707 23.434-6.494 1.467-6.494 10.72 0 12.186 10.46 2.363 15.433 14.367 9.707 23.434-3.555 5.629 2.988 12.172 8.617 8.617 9.067-5.726 21.071-.754 23.434 9.707 1.467 6.494 10.72 6.494 12.186 0 2.363-10.46 14.367-15.433 23.434-9.707 5.629 3.555 12.172-2.988 8.617-8.617-5.726-9.067-.754-21.071 9.707-23.434 6.494-1.467 6.494-10.72 0-12.186-10.46-2.363-15.433-14.367-9.707-23.434 3.555-5.629-2.988-12.172-8.617-8.617-9.067 5.726-21.071.753-23.434-9.707Z" clip-rule="evenodd"/><path fill="url(#svg-plugin-draw-b)" fill-rule="evenodd" d="M47.356 12.105c3.646-16.14 26.642-16.14 30.288 0 .95 4.209 5.78 6.209 9.429 3.905 13.99-8.834 30.251 7.427 21.417 21.417-2.304 3.648-.304 8.478 3.905 9.429 16.14 3.646 16.14 26.642 0 30.288-4.209.95-6.209 5.78-3.905 9.429 8.834 13.99-7.427 30.251-21.417 21.417-3.648-2.304-8.478-.304-9.429 3.905-3.646 16.14-26.642 16.14-30.288 0-.95-4.209-5.78-6.209-9.429-3.905-13.99 8.834-30.251-7.427-21.417-21.417 2.304-3.648.303-8.478-3.905-9.429-16.14-3.646-16.14-26.642 0-30.288 4.209-.95 6.209-5.78 3.905-9.429-8.834-13.99 7.427-30.251 21.417-21.417 3.648 2.304 8.478.303 9.429-3.905Zm21.237 2.044c-1.467-6.494-10.72-6.494-12.186 0-2.363 10.46-14.367 15.433-23.434 9.707-5.629-3.555-12.172 2.988-8.617 8.617 5.726 9.067.753 21.071-9.707 23.434-6.494 1.467-6.494 10.72 0 12.186 10.46 2.363 15.433 14.367 9.707 23.434-3.555 5.629 2.988 12.172 8.617 8.617 9.067-5.726 21.071-.754 23.434 9.707 1.467 6.494 10.72 6.494 12.186 0 2.363-10.46 14.367-15.433 23.434-9.707 5.629 3.555 12.172-2.988 8.617-8.617-5.726-9.067-.754-21.071 9.707-23.434 6.494-1.467 6.494-10.72 0-12.186-10.46-2.363-15.433-14.367-9.707-23.434 3.555-5.629-2.988-12.172-8.617-8.617-9.067 5.726-21.071.753-23.434-9.707Z" clip-rule="evenodd" style="mix-blend-mode: multiply;"/><defs><radialGradient id="svg-plugin-draw-a" cx="0" cy="0" r="1" gradientTransform="matrix(120.95914 -135.71005 90.64905 80.79601 -33.38 101.828)" gradientUnits="userSpaceOnUse"><stop stop-color="#FFD9B0"/><stop offset=".807" stop-color="#FD9F3B"/><stop offset="1" stop-color="#FF8709"/></radialGradient><pattern id="svg-plugin-draw-b" width=".806" height=".806" patternContentUnits="objectBoundingBox"><use xlink:href="#svg-noise" xmlns:xlink="http://www.w3.org/1999/xlink" transform="scale(.00161)"/></pattern></defs></svg>