<svg xmlns="http://www.w3.org/2000/svg" xmlns:xlink="http://www.w3.org/1999/xlink" fill="none" viewBox="0 0 309 152" aria-hidden="true" class="text-muted-foreground" width="25" height="25"><g data-svg-origin="298.6579895019531 129.64499282836914" transform="matrix(0.99999,-0.00522,0.00522,0.99999,-0.67376,1.56029)" style="translate: none; rotate: none; scale: none; transform-origin: 0px 0px 0px;"><path fill="#F5A9FF" d="m82.78 35.086 215.877 94.559L79 92l3.78-56.914Z"/><path fill="url(#paint0_linear_2272_56525)" d="m82.78 35.086 215.877 94.559L79 92l3.78-56.914Z"/><path fill="url(#pattern-scroll-smooth-plane-0)" fill-opacity=".34" d="m82.78 35.086 215.877 94.559L79 92l3.78-56.914Z"/><path fill="url(#paint1_linear_2272_56525)" d="m82.781 35.085 52.044-23.564 163.833 118.123-215.877-94.56Z"/><path fill="url(#pattern-scroll-smooth-plane-1)" fill-opacity=".6" d="m82.781 35.085 52.044-23.564 163.833 118.123-215.877-94.56Z" style="mix-blend-mode: multiply;"/></g><g data-svg-origin="298.77699303627014 130.95899963378906" transform="matrix(0.99999,0.00522,-0.00522,0.99999,0.68659,-1.55831)" style="translate: none; rotate: none; scale: none; transform-origin: 0px 0px 0px;"><path fill="url(#paint2_linear_2272_56525)" d="M76.828 107.147 291.17 126.73l-216.516 4.229 2.175-23.812Z"/><path fill="#000" fill-opacity=".2" d="M76.828 107.147 291.17 126.73l-216.516 4.229 2.175-23.812Z"/><path fill="url(#paint3_linear_2272_56525)" d="M76.828 107.147 291.17 126.73l-216.516 4.229 2.175-23.812Z"/><path fill="url(#pattern-scroll-smooth-plane-2)" fill-opacity=".34" d="M76.828 107.147 291.17 126.73l-216.516 4.229 2.175-23.812Z"/><path fill="url(#paint4_linear_2272_56525)" d="M298.777 130.425 1.903 103.302l53.998-44.957 242.876 72.08Z"/><path fill="url(#pattern-scroll-smooth-plane-3)" fill-opacity=".6" d="M298.777 130.425 1.903 103.302l53.998-44.957 242.876 72.08Z" style="mix-blend-mode: multiply;"/></g><defs><linearGradient id="paint0_linear_2272_56525" x1="154.593" x2="160.643" y1="48.892" y2="131.658" gradientUnits="userSpaceOnUse"><stop offset=".199" stop-color="#6F4D70"/><stop offset="1" stop-color="#12195A"/></linearGradient><linearGradient id="paint1_linear_2272_56525" x1="66.623" x2="112.939" y1="2.042" y2="199.069" gradientUnits="userSpaceOnUse"><stop offset=".27" stop-color="#FEC5FB"/><stop offset=".838" stop-color="#00BAE2"/></linearGradient><linearGradient id="paint2_linear_2272_56525" x1="112.454" x2="109.954" y1="132.998" y2="94.498" gradientUnits="userSpaceOnUse"><stop stop-color="#2F3CC0"/><stop offset=".706" stop-color="#FFD6EC"/></linearGradient><linearGradient id="paint3_linear_2272_56525" x1="246.499" x2="260.599" y1="203" y2="92.441" gradientUnits="userSpaceOnUse"><stop offset=".199" stop-color="#6F4D70"/><stop offset=".845" stop-color="#12195A"/></linearGradient><linearGradient id="paint4_linear_2272_56525" x1="-18.792" x2="-15.789" y1="49.95" y2="152.351" gradientUnits="userSpaceOnUse"><stop offset=".27" stop-color="#FEC5FB"/><stop offset=".838" stop-color="#00BAE2"/></linearGradient><pattern id="pattern-scroll-smooth-plane-0" width="1" height="1" patternContentUnits="objectBoundingBox"><use xlink:href="#svg-noise" xmlns:xlink="http://www.w3.org/1999/xlink" transform="matrix(.00075 0 0 .00225 0 -1)"/></pattern><pattern id="pattern-scroll-smooth-plane-1" width=".895" height="1.947" patternContentUnits="objectBoundingBox"><use xlink:href="#svg-noise" xmlns:xlink="http://www.w3.org/1999/xlink" transform="scale(.00179 .0039)"/></pattern><pattern id="pattern-scroll-smooth-plane-2" width="1" height="1" patternContentUnits="objectBoundingBox"><use xlink:href="#svg-noise" xmlns:xlink="http://www.w3.org/1999/xlink" transform="matrix(.00075 0 0 .00676 0 -4)"/></pattern><pattern id="pattern-scroll-smooth-plane-3" width=".671" height="4.025" patternContentUnits="objectBoundingBox"><use xlink:href="#svg-noise" xmlns:xlink="http://www.w3.org/1999/xlink" transform="scale(.00134 .00805)"/></pattern></defs></svg>