<svg xmlns="http://www.w3.org/2000/svg" xmlns:xlink="http://www.w3.org/1999/xlink" fill="none" viewBox="0 0 125 44" aria-hidden="true" width="22" height="22"><path fill="url(#svg-plugin-motionpath-a)" fill-rule="evenodd" d="M.5 36.08C.5 40.454 3.988 44 8.291 44H33.54c3.533 0 6.914-1.463 9.362-4.052l19.478-20.6 17.34 18.338a12.838 12.838 0 0 0 18.543.186l23.956-24.352c3.043-3.093 3.043-8.107 0-11.2a7.701 7.701 0 0 0-11.018 0L89.117 24.768 71.741 6.392a12.84 12.84 0 0 0-18.723 0L32.434 28.16H8.29C3.988 28.16.5 31.706.5 36.08Z" clip-rule="evenodd"/><path fill="url(#svg-plugin-motionpath-b)" fill-opacity=".6" fill-rule="evenodd" d="M.5 36.08C.5 40.454 3.988 44 8.291 44H33.54c3.533 0 6.914-1.463 9.362-4.052l19.478-20.6 17.34 18.338a12.838 12.838 0 0 0 18.543.186l23.956-24.352c3.043-3.093 3.043-8.107 0-11.2a7.701 7.701 0 0 0-11.018 0L89.117 24.768 71.741 6.392a12.84 12.84 0 0 0-18.723 0L32.434 28.16H8.29C3.988 28.16.5 31.706.5 36.08Z" clip-rule="evenodd" style="mix-blend-mode: multiply;"/><path fill="url(#svg-plugin-motionpath-c)" d="M123.5 8a7 7 0 1 1-14 0 7 7 0 0 1 14 0Z"/><path fill="url(#svg-plugin-motionpath-d)" fill-opacity=".6" d="M123.5 8a7 7 0 1 1-14 0 7 7 0 0 1 14 0Z" style="mix-blend-mode: multiply;"/><defs><radialGradient id="svg-plugin-motionpath-a" cx="0" cy="0" r="1" gradientTransform="rotate(-39.251 54.456 40.755) scale(98.1428 105.786)" gradientUnits="userSpaceOnUse"><stop offset=".161" stop-color="#DBC3E7"/><stop offset=".688" stop-color="#695EF5"/><stop offset=".917" stop-color="#3829FA"/></radialGradient><radialGradient id="svg-plugin-motionpath-c" cx="0" cy="0" r="1" gradientTransform="matrix(-8.5808 -19.75805 15.88126 -6.89713 125.081 14.889)" gradientUnits="userSpaceOnUse"><stop offset=".161" stop-color="#DBC3E7"/><stop offset=".688" stop-color="#695EF5"/><stop offset=".917" stop-color="#3829FA"/></radialGradient><pattern id="svg-plugin-motionpath-b" width="1.613" height="4.545" patternContentUnits="objectBoundingBox"><use xlink:href="#svg-noise" xmlns:xlink="http://www.w3.org/1999/xlink" transform="scale(.00323 .0091)"/></pattern><pattern id="svg-plugin-motionpath-d" width="14.286" height="14.286" patternContentUnits="objectBoundingBox"><use xlink:href="#svg-noise" xmlns:xlink="http://www.w3.org/1999/xlink" transform="scale(.02857)"/></pattern></defs></svg>